<mxfile host="app.diagrams.net" agent="Mozilla/5.0 (X11; Linux x86_64) AppleWebKit/537.36 (KHTML, like Gecko) Chrome/129.0.0.0 Safari/537.36" version="24.7.16">
  <diagram name="Pagina-1" id="X4L15kFl8ld1ir36U8sE">
    <mxGraphModel dx="1362" dy="793" grid="1" gridSize="10" guides="1" tooltips="1" connect="1" arrows="1" fold="1" page="1" pageScale="1" pageWidth="827" pageHeight="1169" math="0" shadow="0">
      <root>
        <mxCell id="0" />
        <mxCell id="1" parent="0" />
        <mxCell id="sMc9TXCz50gASUB8O7ki-6" value="Head Node" style="rounded=0;whiteSpace=wrap;html=1;verticalAlign=top;" vertex="1" parent="1">
          <mxGeometry x="210" y="30" width="520" height="140" as="geometry" />
        </mxCell>
        <mxCell id="sMc9TXCz50gASUB8O7ki-5" value="Partition (Node IP)" style="rounded=0;whiteSpace=wrap;html=1;verticalAlign=top;" vertex="1" parent="1">
          <mxGeometry x="210" y="290" width="520" height="380" as="geometry" />
        </mxCell>
        <mxCell id="sMc9TXCz50gASUB8O7ki-14" style="edgeStyle=orthogonalEdgeStyle;rounded=0;orthogonalLoop=1;jettySize=auto;html=1;exitX=1;exitY=0.5;exitDx=0;exitDy=0;entryX=0.5;entryY=0;entryDx=0;entryDy=0;startArrow=classic;startFill=1;" edge="1" parent="1" source="sMc9TXCz50gASUB8O7ki-1" target="sMc9TXCz50gASUB8O7ki-12">
          <mxGeometry relative="1" as="geometry" />
        </mxCell>
        <mxCell id="sMc9TXCz50gASUB8O7ki-1" value="Event Bus Server" style="rounded=0;whiteSpace=wrap;html=1;" vertex="1" parent="1">
          <mxGeometry x="400" y="60" width="120" height="60" as="geometry" />
        </mxCell>
        <mxCell id="sMc9TXCz50gASUB8O7ki-7" style="edgeStyle=orthogonalEdgeStyle;rounded=0;orthogonalLoop=1;jettySize=auto;html=1;exitX=1;exitY=0.5;exitDx=0;exitDy=0;entryX=0;entryY=0.5;entryDx=0;entryDy=0;" edge="1" parent="1" source="sMc9TXCz50gASUB8O7ki-2" target="sMc9TXCz50gASUB8O7ki-3">
          <mxGeometry relative="1" as="geometry" />
        </mxCell>
        <mxCell id="sMc9TXCz50gASUB8O7ki-10" style="edgeStyle=orthogonalEdgeStyle;rounded=0;orthogonalLoop=1;jettySize=auto;html=1;exitX=0.5;exitY=0;exitDx=0;exitDy=0;entryX=0.5;entryY=1;entryDx=0;entryDy=0;" edge="1" parent="1" source="sMc9TXCz50gASUB8O7ki-2" target="sMc9TXCz50gASUB8O7ki-9">
          <mxGeometry relative="1" as="geometry" />
        </mxCell>
        <mxCell id="sMc9TXCz50gASUB8O7ki-2" value="Internal" style="rounded=0;whiteSpace=wrap;html=1;" vertex="1" parent="1">
          <mxGeometry x="240" y="410" width="120" height="60" as="geometry" />
        </mxCell>
        <mxCell id="sMc9TXCz50gASUB8O7ki-30" style="rounded=0;orthogonalLoop=1;jettySize=auto;html=1;exitX=0.5;exitY=1;exitDx=0;exitDy=0;entryX=0.25;entryY=0;entryDx=0;entryDy=0;dashed=1;endArrow=none;endFill=0;" edge="1" parent="1" source="sMc9TXCz50gASUB8O7ki-3" target="sMc9TXCz50gASUB8O7ki-17">
          <mxGeometry relative="1" as="geometry" />
        </mxCell>
        <mxCell id="sMc9TXCz50gASUB8O7ki-31" style="rounded=0;orthogonalLoop=1;jettySize=auto;html=1;exitX=0.5;exitY=1;exitDx=0;exitDy=0;entryX=0.25;entryY=0;entryDx=0;entryDy=0;dashed=1;endArrow=none;endFill=0;" edge="1" parent="1" source="sMc9TXCz50gASUB8O7ki-3" target="sMc9TXCz50gASUB8O7ki-18">
          <mxGeometry relative="1" as="geometry" />
        </mxCell>
        <mxCell id="sMc9TXCz50gASUB8O7ki-3" value="Device Shared Memory" style="rounded=0;whiteSpace=wrap;html=1;" vertex="1" parent="1">
          <mxGeometry x="400" y="410" width="120" height="60" as="geometry" />
        </mxCell>
        <mxCell id="sMc9TXCz50gASUB8O7ki-13" style="edgeStyle=orthogonalEdgeStyle;rounded=0;orthogonalLoop=1;jettySize=auto;html=1;exitX=0;exitY=0.5;exitDx=0;exitDy=0;entryX=1;entryY=0.5;entryDx=0;entryDy=0;" edge="1" parent="1" source="sMc9TXCz50gASUB8O7ki-4" target="sMc9TXCz50gASUB8O7ki-3">
          <mxGeometry relative="1" as="geometry" />
        </mxCell>
        <mxCell id="sMc9TXCz50gASUB8O7ki-15" style="edgeStyle=orthogonalEdgeStyle;rounded=0;orthogonalLoop=1;jettySize=auto;html=1;exitX=0.5;exitY=0;exitDx=0;exitDy=0;entryX=0.5;entryY=1;entryDx=0;entryDy=0;" edge="1" parent="1" source="sMc9TXCz50gASUB8O7ki-4" target="sMc9TXCz50gASUB8O7ki-12">
          <mxGeometry relative="1" as="geometry" />
        </mxCell>
        <mxCell id="sMc9TXCz50gASUB8O7ki-27" style="edgeStyle=orthogonalEdgeStyle;rounded=0;orthogonalLoop=1;jettySize=auto;html=1;exitX=0.5;exitY=1;exitDx=0;exitDy=0;entryX=0.5;entryY=0;entryDx=0;entryDy=0;" edge="1" parent="1" source="sMc9TXCz50gASUB8O7ki-4" target="sMc9TXCz50gASUB8O7ki-20">
          <mxGeometry relative="1" as="geometry" />
        </mxCell>
        <mxCell id="sMc9TXCz50gASUB8O7ki-4" value="External" style="rounded=0;whiteSpace=wrap;html=1;" vertex="1" parent="1">
          <mxGeometry x="560" y="410" width="120" height="60" as="geometry" />
        </mxCell>
        <mxCell id="sMc9TXCz50gASUB8O7ki-11" style="edgeStyle=orthogonalEdgeStyle;rounded=0;orthogonalLoop=1;jettySize=auto;html=1;exitX=0.5;exitY=0;exitDx=0;exitDy=0;entryX=0;entryY=0.5;entryDx=0;entryDy=0;startArrow=classic;startFill=1;" edge="1" parent="1" source="sMc9TXCz50gASUB8O7ki-9" target="sMc9TXCz50gASUB8O7ki-1">
          <mxGeometry relative="1" as="geometry" />
        </mxCell>
        <mxCell id="sMc9TXCz50gASUB8O7ki-9" value="Event Bus Client" style="rounded=0;whiteSpace=wrap;html=1;" vertex="1" parent="1">
          <mxGeometry x="240" y="320" width="120" height="60" as="geometry" />
        </mxCell>
        <mxCell id="sMc9TXCz50gASUB8O7ki-12" value="Event Bus Client" style="rounded=0;whiteSpace=wrap;html=1;" vertex="1" parent="1">
          <mxGeometry x="560" y="320" width="120" height="60" as="geometry" />
        </mxCell>
        <mxCell id="sMc9TXCz50gASUB8O7ki-17" value="GPU {n}" style="rounded=0;whiteSpace=wrap;html=1;" vertex="1" parent="1">
          <mxGeometry x="335" y="600" width="120" height="60" as="geometry" />
        </mxCell>
        <mxCell id="sMc9TXCz50gASUB8O7ki-18" value="CPU {m}" style="rounded=0;whiteSpace=wrap;html=1;" vertex="1" parent="1">
          <mxGeometry x="485" y="600" width="120" height="60" as="geometry" />
        </mxCell>
        <mxCell id="sMc9TXCz50gASUB8O7ki-22" style="edgeStyle=orthogonalEdgeStyle;rounded=0;orthogonalLoop=1;jettySize=auto;html=1;entryX=0.5;entryY=0;entryDx=0;entryDy=0;" edge="1" parent="1" source="sMc9TXCz50gASUB8O7ki-20" target="sMc9TXCz50gASUB8O7ki-17">
          <mxGeometry relative="1" as="geometry" />
        </mxCell>
        <mxCell id="sMc9TXCz50gASUB8O7ki-23" style="edgeStyle=orthogonalEdgeStyle;rounded=0;orthogonalLoop=1;jettySize=auto;html=1;exitX=0.5;exitY=1;exitDx=0;exitDy=0;entryX=0.5;entryY=0;entryDx=0;entryDy=0;" edge="1" parent="1" source="sMc9TXCz50gASUB8O7ki-20" target="sMc9TXCz50gASUB8O7ki-18">
          <mxGeometry relative="1" as="geometry" />
        </mxCell>
        <mxCell id="sMc9TXCz50gASUB8O7ki-20" value="XLA" style="rounded=0;whiteSpace=wrap;html=1;" vertex="1" parent="1">
          <mxGeometry x="560" y="510" width="120" height="20" as="geometry" />
        </mxCell>
      </root>
    </mxGraphModel>
  </diagram>
</mxfile>
